<svg width="136" height="84" viewBox="0 0 136 84" fill="none" xmlns="http://www.w3.org/2000/svg">
<mask id="path-1-outside-1_6277_19998" maskUnits="userSpaceOnUse" x="-0.999268" y="0" width="137" height="84" fill="black">
<rect fill="white" x="-0.999268" width="137" height="84"/>
<path fill-rule="evenodd" clip-rule="evenodd" d="M106.969 52.4846C106.36 52.3327 105.852 52.1808 105.395 51.9782C105.057 51.8284 104.775 51.651 104.528 51.446C104.363 51.3097 104.293 51.095 104.313 50.8828C104.558 48.3386 104.289 46.0945 104.532 43.5715C105.547 33.3417 111.995 36.5828 117.783 34.9116C121.106 33.9777 124.43 32.1398 125.644 28.5244C125.843 27.9326 125.668 27.2891 125.255 26.8204C121.463 22.5204 117.266 18.7209 112.706 15.4648C97.4167 4.60652 77.5466 0.0976576 59.299 2.73515C58.6077 2.83506 58.2454 3.59895 58.623 4.18511C60.9342 7.77249 63.9831 10.7083 67.4796 12.8691C68.1151 13.2618 67.8597 14.1101 67.1303 13.947C65.4156 13.5634 63.2123 12.8155 61.1401 11.3569C60.9404 11.2163 60.6832 11.1809 60.4562 11.2712C59.5298 11.6397 58.1921 12.1711 57.0867 12.6471C56.4503 12.9211 56.3208 13.7397 56.8446 14.1926C66.0099 22.1173 79.3431 23.3221 89.7835 16.9803C90.4195 16.594 91.4378 17.3878 91.233 18.102C90.9048 19.2459 90.5216 20.8184 90.1135 22.9599C87.5242 36.0257 80.0612 35.0129 70.8212 31.7211C52.358 25.0461 41.8836 30.7462 32.571 19.4625C31.924 18.6784 30.7864 18.4066 30.0168 19.0714C28.0944 20.7316 26.9566 23.155 26.9566 25.7453C26.9566 28.8133 28.5443 31.4414 30.8976 33.0146C31.1919 33.2114 31.5831 33.1282 31.8028 32.8509C32.3762 32.1269 32.8453 31.647 33.4295 31.3435C34.0688 31.0113 34.3806 31.9236 33.8409 32.4003C31.863 34.1471 31.2953 36.2281 30.0028 40.3304C27.972 46.762 28.8351 53.3455 19.3412 55.0674C14.3151 55.3206 14.4166 58.7137 12.5889 63.7779C10.4678 69.8904 7.69023 72.5978 2.54964 77.9393C1.84658 78.6698 1.78629 79.8379 2.55895 80.4948C4.61235 82.2405 6.73003 82.3365 8.8828 81.4523C14.2136 79.224 18.3259 72.3366 22.1843 67.88C26.4997 62.917 36.8566 65.044 44.6751 60.1823C48.8917 57.6031 51.4252 54.3088 50.615 49.3738C50.4845 48.5789 51.3962 48.1011 51.7269 48.836C52.3547 50.231 52.7662 51.7191 52.9373 53.2566C52.9822 53.6597 53.3433 53.9579 53.7493 53.9352C62.2082 53.4607 73.1469 62.7675 83.3696 65.2857C83.9914 65.4389 84.4335 64.7225 84.0819 64.1884C83.4351 63.206 82.8853 62.1864 82.4473 61.1445C81.9952 60.0622 81.6526 59.012 81.4104 57.9984C81.2209 57.2057 82.382 56.9926 82.7784 57.7053C85.4001 62.4194 90.6396 66.8459 97.9319 67.3736C100.42 67.5761 103.161 67.2723 106.004 66.4114C109.406 65.3985 112.553 64.0818 116.31 64.7908C119.103 65.2972 121.692 66.7152 123.316 69.0954C125.596 72.4117 130.408 73.2905 132.973 69.8245C133.322 69.3528 133.352 68.7222 133.121 68.183C127.473 54.9784 113.133 54.0713 106.969 52.4846Z"/>
</mask>
<path d="M106.969 52.4846L107.467 50.5478C107.463 50.5465 107.458 50.5453 107.453 50.544L106.969 52.4846ZM105.395 51.9782L106.206 50.1498V50.1498L105.395 51.9782ZM104.532 43.5715L102.542 43.374L102.541 43.3796L104.532 43.5715ZM117.783 34.9116L117.242 32.9862C117.237 32.9875 117.232 32.9888 117.228 32.9901L117.783 34.9116ZM112.706 15.4648L113.868 13.8371L113.864 13.8342L112.706 15.4648ZM90.1135 22.9599L92.0753 23.3487C92.0763 23.3439 92.0772 23.3391 92.0781 23.3343L90.1135 22.9599ZM70.8212 31.7211L70.1412 33.602L70.15 33.6051L70.8212 31.7211ZM30.0028 40.3304L31.91 40.9326L31.9103 40.9314L30.0028 40.3304ZM19.3412 55.0674L19.4419 57.0649C19.5279 57.0605 19.6135 57.0507 19.6982 57.0353L19.3412 55.0674ZM12.5889 63.7779L10.7077 63.099C10.7049 63.1067 10.7022 63.1145 10.6995 63.1223L12.5889 63.7779ZM8.8828 81.4523L9.64269 83.3023L9.65413 83.2975L8.8828 81.4523ZM22.1843 67.88L20.6751 66.5677L20.6723 66.5709L22.1843 67.88ZM44.6751 60.1823L43.6315 58.4762C43.6273 58.4787 43.6231 58.4813 43.6189 58.4839L44.6751 60.1823ZM82.4473 61.1445L80.6019 61.9154L80.6036 61.9196L82.4473 61.1445ZM97.9319 67.3736L98.0942 65.3802C98.0882 65.3797 98.0823 65.3792 98.0763 65.3788L97.9319 67.3736ZM106.004 66.4114L105.433 64.4945L105.425 64.4972L106.004 66.4114ZM116.31 64.7908L115.939 66.7561C115.944 66.757 115.949 66.7578 115.953 66.7587L116.31 64.7908ZM123.316 69.0954L121.665 70.2229L121.668 70.2284L123.316 69.0954ZM81.4104 57.9984L79.4652 58.4634V58.4634L81.4104 57.9984ZM82.7784 57.7053L84.5262 56.7332V56.7332L82.7784 57.7053ZM83.3696 65.2857L82.8912 67.2276V67.2276L83.3696 65.2857ZM84.0819 64.1884L85.7524 63.0887V63.0887L84.0819 64.1884ZM52.9373 53.2566L54.9251 53.0355L52.9373 53.2566ZM53.7493 53.9352L53.6373 51.9383L53.7493 53.9352ZM33.4295 31.3435L32.5073 29.5688L33.4295 31.3435ZM33.8409 32.4003L32.5169 30.9012L33.8409 32.4003ZM32.571 19.4625L31.0285 20.7355L32.571 19.4625ZM30.0168 19.0714L28.7095 17.5577V17.5577L30.0168 19.0714ZM132.973 69.8245L134.581 71.0142V71.0142L132.973 69.8245ZM133.121 68.183L134.96 67.3965V67.3965L133.121 68.183ZM89.7835 16.9803L88.7452 15.2709V15.2709L89.7835 16.9803ZM91.233 18.102L89.3105 17.5505V17.5505L91.233 18.102ZM2.54964 77.9393L3.99069 79.3261V79.3261L2.54964 77.9393ZM2.55895 80.4948L3.85438 78.971H3.85438L2.55895 80.4948ZM57.0867 12.6471L56.2957 10.8102V10.8102L57.0867 12.6471ZM56.8446 14.1926L58.1527 12.6797V12.6797L56.8446 14.1926ZM61.1401 11.3569L62.2914 9.72145V9.72145L61.1401 11.3569ZM60.4562 11.2712L61.1954 13.1296V13.1296L60.4562 11.2712ZM67.4796 12.8691L66.4282 14.5705V14.5705L67.4796 12.8691ZM67.1303 13.947L67.5668 11.9952V11.9952L67.1303 13.947ZM30.8976 33.0146L29.7861 34.6773V34.6773L30.8976 33.0146ZM31.8028 32.8509L30.235 31.609V31.609L31.8028 32.8509ZM125.644 28.5244L123.748 27.8876V27.8876L125.644 28.5244ZM125.255 26.8204L126.755 25.4977V25.4977L125.255 26.8204ZM59.299 2.73515L59.5851 4.71458V4.71458L59.299 2.73515ZM58.623 4.18511L60.3043 3.10196V3.10196L58.623 4.18511ZM50.615 49.3738L48.6414 49.6978L50.615 49.3738ZM51.7269 48.836L49.9031 49.6567V49.6567L51.7269 48.836ZM104.528 51.446L105.804 49.9065V49.9065L104.528 51.446ZM104.313 50.8828L102.322 50.6912L104.313 50.8828ZM106.969 52.4846L107.453 50.544C106.883 50.4019 106.506 50.2828 106.206 50.1498L105.395 51.9782L104.584 53.8066C105.198 54.0787 105.836 54.2635 106.485 54.4252L106.969 52.4846ZM105.395 51.9782L106.206 50.1498C106.031 50.0726 105.907 49.9913 105.804 49.9065L104.528 51.446L103.251 52.9855C103.643 53.3108 104.083 53.5843 104.584 53.8066L105.395 51.9782ZM104.313 50.8828L106.304 51.0744C106.438 49.6865 106.429 48.3914 106.423 47.2086C106.417 46.0014 106.412 44.9085 106.523 43.7634L104.532 43.5715L102.541 43.3796C102.408 44.7575 102.417 46.0482 102.423 47.2299C102.43 48.4359 102.434 49.535 102.322 50.6912L104.313 50.8828ZM104.532 43.5715L106.522 43.769C106.757 41.4011 107.285 40.0749 107.839 39.3081C108.351 38.5979 108.999 38.2076 109.898 37.9604C110.887 37.6885 112.031 37.6229 113.54 37.5272C114.962 37.437 116.654 37.3191 118.338 36.8331L117.783 34.9116L117.228 32.9901C116.017 33.3396 114.733 33.4434 113.287 33.5352C111.927 33.6215 110.311 33.6983 108.837 34.1037C107.274 34.5338 105.758 35.3559 104.595 36.9673C103.473 38.5222 102.814 40.627 102.542 43.374L104.532 43.5715ZM117.783 34.9116L118.324 36.837C121.875 35.8392 126.008 33.7208 127.54 29.1613L125.644 28.5244L123.748 27.8876C122.851 30.5587 120.338 32.1162 117.242 32.9862L117.783 34.9116ZM125.255 26.8204L126.755 25.4977C122.865 21.0864 118.555 17.184 113.868 13.8371L112.706 15.4648L111.544 17.0925C115.977 20.2579 120.061 23.9544 123.754 28.1431L125.255 26.8204ZM112.706 15.4648L113.864 13.8342C98.1422 2.6687 77.7518 -1.95278 59.0129 0.755715L59.299 2.73515L59.5851 4.71458C77.3415 2.1481 96.6912 6.54434 111.548 17.0954L112.706 15.4648ZM58.623 4.18511L56.9417 5.26827C59.4182 9.11234 62.6847 12.257 66.4282 14.5705L67.4796 12.8691L68.531 11.1678C65.2814 9.15953 62.4501 6.43263 60.3043 3.10196L58.623 4.18511ZM67.1303 13.947L67.5668 11.9952C66.0238 11.6501 64.0871 10.9855 62.2914 9.72145L61.1401 11.3569L59.9889 12.9924C62.3375 14.6456 64.8074 15.4768 66.6938 15.8987L67.1303 13.947ZM60.4562 11.2712L59.7169 9.41288C58.7974 9.77866 57.4319 10.3209 56.2957 10.8102L57.0867 12.6471L57.8777 14.484C58.9524 14.0213 60.2623 13.5008 61.1954 13.1296L60.4562 11.2712ZM56.8446 14.1926L55.5365 15.7055C65.3521 24.1925 79.6324 25.4864 90.8218 18.6897L89.7835 16.9803L88.7452 15.2709C79.0538 21.1577 66.6677 20.0422 58.1527 12.6797L56.8446 14.1926ZM91.233 18.102L89.3105 17.5505C88.9626 18.7632 88.5661 20.396 88.1488 22.5855L90.1135 22.9599L92.0781 23.3343C92.4771 21.2407 92.847 19.7286 93.1554 18.6534L91.233 18.102ZM90.1135 22.9599L88.1516 22.5711C86.9211 28.7804 84.7033 30.888 82.405 31.5535C79.7598 32.3196 76.1714 31.504 71.4924 29.8371L70.8212 31.7211L70.15 33.6051C74.711 35.23 79.4741 36.5667 83.5177 35.3957C87.9082 34.1242 90.7166 30.2052 92.0753 23.3487L90.1135 22.9599ZM70.8212 31.7211L71.5012 29.8403C62.0065 26.4076 54.4443 26.1338 48.5314 25.3379C42.6702 24.549 38.3099 23.274 34.1135 18.1894L32.571 19.4625L31.0285 20.7355C36.1447 26.9347 41.6779 28.4515 47.9978 29.3022C54.2661 30.1459 61.1727 30.3596 70.1412 33.602L70.8212 31.7211ZM30.0168 19.0714L28.7095 17.5577C26.3542 19.5919 24.9566 22.5646 24.9566 25.7453H26.9566H28.9566C28.9566 23.7453 29.8346 21.8713 31.324 20.585L30.0168 19.0714ZM26.9566 25.7453H24.9566C24.9566 29.5365 26.9253 32.7649 29.7861 34.6773L30.8976 33.0146L32.0091 31.3519C30.1633 30.118 28.9566 28.0901 28.9566 25.7453H26.9566ZM31.8028 32.8509L33.3705 34.0927C33.9039 33.4194 34.1574 33.2191 34.3516 33.1182L33.4295 31.3435L32.5073 29.5688C31.5332 30.0749 30.8486 30.8344 30.235 31.609L31.8028 32.8509ZM33.8409 32.4003L32.5169 30.9012C30.0299 33.0978 29.3241 35.8291 28.0952 39.7294L30.0028 40.3304L31.9103 40.9314C33.2665 36.627 33.6961 35.1965 35.1648 33.8993L33.8409 32.4003ZM30.0028 40.3304L28.0956 39.7282C27.5558 41.4378 27.2036 43.1754 26.8653 44.6597C26.5141 46.2002 26.1718 47.502 25.6534 48.6299C25.1515 49.7219 24.4977 50.618 23.5304 51.34C22.5503 52.0716 21.1337 52.7097 18.9843 53.0995L19.3412 55.0674L19.6982 57.0353C22.2957 56.5642 24.3314 55.7336 25.9231 54.5455C27.5276 53.3479 28.565 51.8733 29.2879 50.3002C29.9944 48.7631 30.4104 47.1054 30.7652 45.5487C31.1329 43.9359 31.4344 42.4388 31.91 40.9326L30.0028 40.3304ZM19.3412 55.0674L19.2406 53.0699C17.7654 53.1442 16.4845 53.4577 15.3985 54.1053C14.2948 54.7635 13.5543 55.67 13.0129 56.6554C12.4928 57.6019 12.1277 58.6777 11.8008 59.7147C11.4577 60.8029 11.1461 61.8843 10.7077 63.099L12.5889 63.7779L14.4702 64.4569C14.9456 63.1394 15.3067 61.8976 15.6157 60.9174C15.9409 59.8859 16.2072 59.1481 16.5185 58.5817C16.8084 58.0541 17.0991 57.7484 17.4472 57.5408C17.8128 57.3228 18.404 57.1171 19.4419 57.0649L19.3412 55.0674ZM12.5889 63.7779L10.6995 63.1223C8.74198 68.7632 6.27962 71.1793 1.10859 76.5524L2.54964 77.9393L3.99069 79.3261C9.10083 74.0163 12.1936 71.0176 14.4784 64.4336L12.5889 63.7779ZM2.55895 80.4948L1.26351 82.0185C2.54684 83.1096 3.94474 83.7582 5.43593 83.9443C6.91242 84.1286 8.33095 83.8411 9.64268 83.3023L8.8828 81.4523L8.12292 79.6022C7.28188 79.9477 6.56519 80.0542 5.93129 79.9751C5.3121 79.8979 4.62446 79.6257 3.85438 78.971L2.55895 80.4948ZM8.8828 81.4523L9.65413 83.2975C12.7777 81.9919 15.3933 79.4009 17.6087 76.798C18.7326 75.4776 19.8036 74.0916 20.8096 72.7913C21.8284 71.4745 22.7744 70.2539 23.6964 69.1891L22.1843 67.88L20.6723 66.5709C19.665 67.7343 18.65 69.0459 17.646 70.3436C16.6292 71.6577 15.6155 72.9684 14.5626 74.2054C12.4246 76.7175 10.3186 78.6844 8.11147 79.607L8.8828 81.4523ZM22.1843 67.88L23.6936 69.1923C24.4564 68.3151 25.5512 67.6717 27.0599 67.1619C28.5878 66.6456 30.3797 66.3162 32.4504 65.965C36.4559 65.2857 41.424 64.559 45.7312 61.8807L44.6751 60.1823L43.6189 58.4839C40.1077 60.6673 35.9881 61.308 31.7816 62.0213C29.7465 62.3665 27.6513 62.7398 25.7793 63.3724C23.888 64.0115 22.07 64.9635 20.6751 66.5677L22.1843 67.88ZM44.6751 60.1823L45.7187 61.8885C47.9781 60.5064 49.958 58.8325 51.2444 56.6915C52.5614 54.4995 53.066 51.9582 52.5885 49.0498L50.615 49.3738L48.6414 49.6978C48.9741 51.7244 48.617 53.2977 47.8157 54.6315C46.9837 56.0162 45.5886 57.279 43.6315 58.4762L44.6751 60.1823ZM51.7269 48.836L49.9031 49.6567C50.4465 50.8643 50.8019 52.1503 50.9496 53.4778L52.9373 53.2566L54.9251 53.0355C54.7306 51.2879 54.2629 49.5977 53.5508 48.0152L51.7269 48.836ZM53.7493 53.9352L53.8613 55.932C55.6029 55.8344 57.5875 56.2378 59.8379 57.0386C62.0824 57.8374 64.4646 58.984 66.9903 60.2704C71.9275 62.7849 77.493 65.8979 82.8912 67.2276L83.3696 65.2857L83.848 63.3438C79.0236 62.1553 74.0084 59.3558 68.8057 56.706C66.2615 55.4102 63.6841 54.1617 61.179 53.2702C58.6799 52.3808 56.1251 51.7988 53.6373 51.9383L53.7493 53.9352ZM84.0819 64.1884L85.7524 63.0887C85.1685 62.2017 84.6782 61.2903 84.291 60.3694L82.4473 61.1445L80.6036 61.9196C81.0925 63.0824 81.7018 64.2102 82.4114 65.2882L84.0819 64.1884ZM82.4473 61.1445L84.2928 60.3737C83.8795 59.3842 83.5713 58.4362 83.3556 57.5335L81.4104 57.9984L79.4652 58.4634C79.7339 59.5877 80.1109 60.7401 80.6019 61.9154L82.4473 61.1445ZM82.7784 57.7053L81.0305 58.6774C83.9237 63.8795 89.7144 68.7842 97.7876 69.3684L97.9319 67.3736L98.0763 65.3788C91.5648 64.9076 86.8766 60.9592 84.5262 56.7332L82.7784 57.7053ZM97.9319 67.3736L97.7696 69.367C100.534 69.5921 103.528 69.251 106.584 68.3255L106.004 66.4114L105.425 64.4972C102.795 65.2936 100.305 65.5602 98.0942 65.3802L97.9319 67.3736ZM106.004 66.4114L106.575 68.3282C110.244 67.2358 112.786 66.1611 115.939 66.7561L116.31 64.7908L116.681 62.8255C112.32 62.0025 108.568 63.5612 105.433 64.4945L106.004 66.4114ZM116.31 64.7908L115.953 66.7587C118.332 67.19 120.401 68.3712 121.665 70.2229L123.316 69.0954L124.968 67.9679C122.983 65.0592 119.874 63.4044 116.667 62.8229L116.31 64.7908ZM123.316 69.0954L121.668 70.2284C123.125 72.3468 125.409 73.7235 127.817 73.9911C130.282 74.265 132.845 73.3605 134.581 71.0142L132.973 69.8245L131.366 68.6348C130.537 69.7545 129.411 70.1435 128.259 70.0155C127.049 69.8811 125.788 69.1604 124.965 67.9624L123.316 69.0954ZM133.121 68.183L134.96 67.3965C131.87 60.1728 126.384 56.3358 120.997 54.1266C115.784 51.9889 110.189 51.2482 107.467 50.5478L106.969 52.4846L106.47 54.4215C109.913 55.3077 114.569 55.8139 119.48 57.8275C124.216 59.7697 128.724 62.9886 131.282 68.9695L133.121 68.183ZM81.4104 57.9984L83.3556 57.5335C83.4294 57.8422 83.3977 58.2972 83.1002 58.7022C82.8355 59.0624 82.4933 59.2032 82.2671 59.2485C81.8479 59.3323 81.3103 59.1805 81.0305 58.6774L82.7784 57.7053L84.5262 56.7332C83.8501 55.5175 82.5337 55.1158 81.4822 55.3262C80.9399 55.4347 80.3182 55.7329 79.8767 56.3338C79.4023 56.9794 79.2966 57.7582 79.4652 58.4634L81.4104 57.9984ZM83.3696 65.2857L82.8912 67.2276C84.1323 67.5334 85.2288 66.9316 85.778 66.0687C86.3107 65.2317 86.3957 64.0659 85.7524 63.0887L84.0819 64.1884L82.4114 65.2882C82.1197 64.8451 82.1594 64.3045 82.4035 63.9209C82.6642 63.5114 83.2288 63.1912 83.848 63.3438L83.3696 65.2857ZM52.9373 53.2566L50.9496 53.4778C51.115 54.9643 52.4232 56.0127 53.8613 55.932L53.7493 53.9352L53.6373 51.9383C54.2635 51.9032 54.8494 52.3552 54.9251 53.0355L52.9373 53.2566ZM33.4295 31.3435L34.3516 33.1182C34.1064 33.2456 33.619 33.3769 33.0682 33.1468C32.5544 32.932 32.3007 32.5325 32.1999 32.2581C32.0103 31.7417 32.1598 31.2166 32.5169 30.9012L33.8409 32.4003L35.1648 33.8993C36.0616 33.1072 36.3251 31.8876 35.9547 30.879C35.7635 30.3584 35.3458 29.7633 34.6105 29.4561C33.8383 29.1334 33.0722 29.2753 32.5073 29.5688L33.4295 31.3435ZM32.571 19.4625L34.1135 18.1894C32.9892 16.8271 30.5855 15.9375 28.7095 17.5577L30.0168 19.0714L31.324 20.585C31.275 20.6273 31.2063 20.6643 31.1306 20.6831C31.0595 20.7007 31.0084 20.6961 30.9864 20.6921C30.9656 20.6884 30.966 20.6848 30.9809 20.6937C30.9952 20.7023 31.0128 20.7165 31.0285 20.7355L32.571 19.4625ZM132.973 69.8245L134.581 71.0142C135.421 69.8791 135.421 68.4757 134.96 67.3965L133.121 68.183L131.282 68.9695C131.276 68.9562 131.266 68.9264 131.271 68.8737C131.275 68.8164 131.298 68.726 131.366 68.6348L132.973 69.8245ZM89.7835 16.9803L90.8218 18.6897C90.4939 18.8889 90.1685 18.8977 89.9681 18.8632C89.7815 18.8311 89.6637 18.7599 89.5972 18.7084C89.5305 18.6565 89.4361 18.5629 89.3611 18.3975C89.2812 18.2214 89.2064 17.9135 89.3105 17.5505L91.233 18.102L93.1554 18.6534C93.5731 17.1975 92.7015 16.0544 92.0499 15.5486C91.3992 15.0435 90.0589 14.473 88.7452 15.2709L89.7835 16.9803ZM2.54964 77.9393L1.10859 76.5524C-0.217091 77.9299 -0.570719 80.4591 1.26351 82.0185L2.55895 80.4948L3.85438 78.971C3.89869 79.0087 3.9411 79.064 3.96906 79.1288C3.99553 79.1902 4.00113 79.2411 4.00071 79.272C3.99998 79.3251 3.98357 79.3335 3.99069 79.3261L2.54964 77.9393ZM57.0867 12.6471L56.2957 10.8102C54.3164 11.6625 53.8858 14.2782 55.5365 15.7055L56.8446 14.1926L58.1527 12.6797C58.7559 13.2012 58.5842 14.1798 57.8777 14.484L57.0867 12.6471ZM61.1401 11.3569L62.2914 9.72145C61.5659 9.21081 60.6008 9.0613 59.7169 9.41288L60.4562 11.2712L61.1954 13.1296C60.7656 13.3006 60.3149 13.2218 59.9889 12.9924L61.1401 11.3569ZM67.4796 12.8691L66.4282 14.5705C66.06 14.3429 65.6792 13.7482 65.9086 13.0174C66.0186 12.6671 66.2669 12.339 66.6344 12.1413C67.0058 11.9415 67.3567 11.9482 67.5668 11.9952L67.1303 13.947L66.6938 15.8987C67.2686 16.0273 67.925 15.9891 68.5295 15.6639C69.1302 15.3407 69.5394 14.8066 69.7249 14.2155C70.1056 13.0032 69.5347 11.788 68.531 11.1678L67.4796 12.8691ZM30.8976 33.0146L29.7861 34.6773C31.0427 35.5173 32.578 35.0932 33.3705 34.0927L31.8028 32.8509L30.235 31.609C30.5882 31.1632 31.3412 30.9054 32.0091 31.3519L30.8976 33.0146ZM125.644 28.5244L127.54 29.1613C128.001 27.7887 127.563 26.4146 126.755 25.4977L125.255 26.8204L123.754 28.1431C123.754 28.1429 123.752 28.1403 123.749 28.1338C123.745 28.1272 123.739 28.1143 123.734 28.0938C123.724 28.0502 123.719 27.9745 123.748 27.8876L125.644 28.5244ZM59.299 2.73515L59.0129 0.755715C56.9344 1.05614 55.7459 3.41203 56.9417 5.26827L58.623 4.18511L60.3043 3.10196C60.7449 3.78588 60.2811 4.61398 59.5851 4.71458L59.299 2.73515ZM50.615 49.3738L52.5885 49.0498C52.6601 49.4856 52.4513 50.0396 51.895 50.3188C51.61 50.4618 51.1843 50.5456 50.7263 50.383C50.2496 50.2138 50.0003 49.8728 49.9031 49.6567L51.7269 48.836L53.5508 48.0152C53.2882 47.4317 52.8009 46.8749 52.0644 46.6134C51.3464 46.3586 50.6389 46.4737 50.101 46.7437C49.0387 47.2767 48.4393 48.467 48.6414 49.6978L50.615 49.3738ZM104.528 51.446L105.804 49.9065C106.24 50.2676 106.335 50.7519 106.304 51.0744L104.313 50.8828L102.322 50.6912C102.251 51.438 102.487 52.3518 103.251 52.9855L104.528 51.446Z" fill="white" mask="url(#path-1-outside-1_6277_19998)"/>
</svg>
