<svg width="132" height="80" viewBox="0 0 132 80" fill="none" xmlns="http://www.w3.org/2000/svg">
<path fill-rule="evenodd" clip-rule="evenodd" d="M104.968 50.4846C104.359 50.3327 103.851 50.1808 103.394 49.9782C103.057 49.8284 102.774 49.651 102.527 49.446C102.363 49.3097 102.292 49.095 102.313 48.8828C102.557 46.3386 102.288 44.0945 102.531 41.5715C103.547 31.3417 109.994 34.5828 115.782 32.9116C119.105 31.9777 122.429 30.1398 123.643 26.5244C123.842 25.9326 123.667 25.2891 123.254 24.8204C119.463 20.5204 115.265 16.7209 110.705 13.4648C95.416 2.60652 75.5459 -1.90234 57.2983 0.735146C56.607 0.835062 56.2447 1.59895 56.6223 2.18511C58.9334 5.77249 61.9823 8.70827 65.4789 10.8691C66.1143 11.2618 65.859 12.1101 65.1296 11.947C63.4148 11.5634 61.2116 10.8155 59.1394 9.3569C58.9397 9.21633 58.6825 9.18093 58.4554 9.27125C57.5291 9.63973 56.1914 10.1711 55.086 10.6471C54.4496 10.9211 54.3201 11.7397 54.8439 12.1926C64.0092 20.1173 77.3424 21.3221 87.7828 14.9803C88.4188 14.594 89.4371 15.3878 89.2322 16.102C88.9041 17.2459 88.5208 18.8184 88.1127 20.9599C85.5235 34.0257 78.0604 33.0129 68.8204 29.7211C50.3573 23.0461 39.8829 28.7462 30.5703 17.4625C29.9232 16.6784 28.7857 16.4066 28.016 17.0714C26.0937 18.7316 24.9559 21.155 24.9559 23.7453C24.9559 26.8133 26.5436 29.4414 28.8969 31.0146C29.1912 31.2114 29.5824 31.1282 29.802 30.8509C30.3755 30.1269 30.8446 29.647 31.4287 29.3435C32.0681 29.0113 32.3799 29.9236 31.8401 30.4003C29.8623 32.1471 29.2946 34.2281 28.002 38.3304C25.9713 44.762 26.8344 51.3455 17.3405 53.0674C12.3144 53.3206 12.4159 56.7137 10.5882 61.7779C8.46708 67.8904 5.68949 70.5978 0.548911 75.9393C-0.154157 76.6698 -0.214446 77.8379 0.558217 78.4948C2.61162 80.2405 4.7293 80.3365 6.88207 79.4523C12.2128 77.224 16.3251 70.3366 20.1836 65.88C24.499 60.917 34.8559 63.044 42.6743 58.1823C46.8909 55.6031 49.4244 52.3088 48.6142 47.3738C48.4837 46.5789 49.3955 46.1011 49.7262 46.836C50.3539 48.231 50.7655 49.7191 50.9366 51.2566C50.9814 51.6597 51.3426 51.9579 51.7485 51.9352C60.2074 51.4607 71.1462 60.7675 81.3689 63.2857C81.9907 63.4389 82.4327 62.7225 82.0812 62.1884C81.4344 61.206 80.8846 60.1864 80.4466 59.1445C79.9945 58.0622 79.6519 57.012 79.4096 55.9984C79.2201 55.2057 80.3813 54.9926 80.7776 55.7053C83.3994 60.4194 88.6389 64.8459 95.9312 65.3736C98.4189 65.5761 101.16 65.2723 104.003 64.4114C107.405 63.3985 110.553 62.0818 114.31 62.7908C117.102 63.2972 119.691 64.7152 121.316 67.0954C123.595 70.4117 128.408 71.2905 130.973 67.8245C131.322 67.3528 131.351 66.7222 131.12 66.183C125.473 52.9784 111.132 52.0713 104.968 50.4846Z" fill="#D2D2D3"/>
</svg>
